# xmcd CD database file
#
# Track frame offsets:
#	150
#	9742
#	22115
#	35157
#	53077
#	69925
#	81242
#	94982
#	105067
#	116867
#	130230
#	137347
#	145145
#	153125
#
# Disc length: 2389 seconds
#
# Revision: 13
# Processed by: cddbd v1.5.2PL0 Copyright (c) Steve Scherf et al.
# Submitted via: CDex 1.51
#
DISCID=b509530e
DTITLE=Green Day - Dookie
DYEAR=1994
DGENRE=Punk Rock
TTITLE0=Burnout
TTITLE1=Having A Blast
TTITLE2=Chump
TTITLE3=Longview
TTITLE4=Welcome To Paradise
TTITLE5=Pulling Teeth
TTITLE6=Basket Case
TTITLE7=She
TTITLE8=Sassafras Roots
TTITLE9=When I Come Around
TTITLE10=Coming Clean
TTITLE11=Emenius Sleepus
TTITLE12=In The End
TTITLE13=F.O.D.
EXTD=YEAR: 1994
EXTT0=
EXTT1=
EXTT2=
EXTT3=
EXTT4=
EXTT5=
EXTT6=
EXTT7=
EXTT8=
EXTT9=
EXTT10=
EXTT11=
EXTT12=
EXTT13=
PLAYORDER=
